<svg xmlns="http://www.w3.org/2000/svg" xmlns:xlink="http://www.w3.org/1999/xlink" viewBox="0 0 698.97 520.67"><defs><style>.cls-1,.cls-6,.cls-7,.cls-8,.cls-9{fill:none;}.cls-2{clip-path:url(#clip-path);}.cls-3{fill:#001f9b;}.cls-4{filter:url(#Layer_3);}.cls-5{fill:#ff9602;}.cls-6,.cls-7,.cls-8{stroke:#ff9602;}.cls-6,.cls-7,.cls-8,.cls-9{stroke-miterlimit:10;}.cls-6{stroke-width:54.1px;}.cls-7{stroke-width:54.1px;}.cls-8{stroke-width:108.2px;}.cls-9{stroke:#ec1c24;stroke-width:162.31px;filter:url(#filter);}</style><clipPath id="clip-path"><rect class="cls-1" width="698.97" height="520.67" rx="91.48"/></clipPath><filter id="Layer_3"><feOffset input="SourceAlpha"/><feGaussianBlur stdDeviation="13.53" result="blur"/><feFlood/><feComposite operator="in" in2="blur"/><feComposite in="SourceGraphic"/></filter><filter id="filter" x="-154.58" y="-166.78" width="1009" height="856" filterUnits="userSpaceOnUse"><feOffset input="SourceAlpha"/><feGaussianBlur stdDeviation="13.53" result="blur-2"/><feFlood/><feComposite operator="in" in2="blur-2"/><feComposite in="SourceGraphic"/></filter></defs><g id="Layer_2" data-name="Layer 2"><g id="Layer_4" data-name="Layer 4"><g class="cls-2"><rect class="cls-3" x="45.06" y="30.43" width="608.86" height="459.82"/><g id="Layer_3-2" data-name="Layer 3" class="cls-4"><path class="cls-5" d="M45,197.19h93.85A261.81,261.81,0,0,1,400.66,459v36.27a0,0,0,0,1,0,0H45a0,0,0,0,1,0,0V197.19A0,0,0,0,1,45,197.19Z"/><line class="cls-6" x1="653.91" y1="30.43" x2="45.06" y2="490.24"/><line class="cls-7" x1="319.37" y1="15.12" x2="45.06" y2="490.24"/><line class="cls-6" x1="665.71" y1="264.09" x2="45.06" y2="490.24"/><line class="cls-8" x1="45.06" y1="30.43" x2="45.06" y2="490.24"/><line class="cls-8" x1="653.91" y1="490.24" x2="45.06" y2="490.24"/></g><rect class="cls-9" x="48.5" y="36.13" width="601.96" height="448.41" rx="74.39"/></g></g></g></svg>